HIERARCHY
ROOT hip
{
	OFFSET 0.000000 0.000000 0.000000
	CHANNELS 6 Xposition Yposition Zposition Zrotation Yrotation Xrotation 
	JOINT lhipjoint
	{
		OFFSET 0.000000 0.000000 0.000000
		CHANNELS 3 Zrotation Yrotation Xrotation
		JOINT lfemur
		{
			OFFSET 1.363060 -1.794630 0.839290
			CHANNELS 3 Zrotation Yrotation Xrotation
			JOINT ltibia
			{
				OFFSET 2.448110 -6.726130 0.000000
				CHANNELS 3 Zrotation Yrotation Xrotation
				JOINT lfoot
				{
					OFFSET 2.562200 -7.039590 0.000000
					CHANNELS 3 Zrotation Yrotation Xrotation
					JOINT ltoes
					{
						OFFSET 0.157640 -0.433110 2.322550
						CHANNELS 3 Zrotation Yrotation Xrotation
						End Site
						{
							OFFSET 0.000000 0.000000 0.000000
						}
					}
				}
			}
		}
	}
	JOINT rhipjoint
	{
		OFFSET 0.000000 0.000000 0.000000
		CHANNELS 3 Zrotation Yrotation Xrotation
		JOINT rfemur
		{
			OFFSET -1.305520 -1.794630 0.839290
			CHANNELS 3 Zrotation Yrotation Xrotation
			JOINT rtibia
			{
				OFFSET -2.542530 -6.985550 0.000000
				CHANNELS 3 Zrotation Yrotation Xrotation
				JOINT rfoot
				{
					OFFSET -2.568260 -7.056230 0.000000
					CHANNELS 3 Zrotation Yrotation Xrotation
					JOINT rtoes
					{
						OFFSET -0.164730 -0.452590 2.363150
						CHANNELS 3 Zrotation Yrotation Xrotation
						End Site
						{
							OFFSET 0.000000 0.000000 0.000000
						}
					}
				}
			}
		}
	}
	JOINT lowerback
	{
		OFFSET 0.000000 0.000000 0.000000
		CHANNELS 3 Zrotation Yrotation Xrotation
		JOINT upperback
		{
			OFFSET 0.028270 2.035590 -0.193380
			CHANNELS 3 Zrotation Yrotation Xrotation
			JOINT thorax
			{
				OFFSET 0.056720 2.048850 -0.042750
				CHANNELS 3 Zrotation Yrotation Xrotation
				JOINT lowerneck
				{
					OFFSET 0.000000 0.000000 0.000000
					CHANNELS 3 Zrotation Yrotation Xrotation
					JOINT upperneck
					{
						OFFSET -0.054170 1.746240 0.172020
						CHANNELS 3 Zrotation Yrotation Xrotation
						JOINT head
						{
							OFFSET 0.104070 1.761360 -0.123970
							CHANNELS 3 Zrotation Yrotation Xrotation
							End Site
							{
								OFFSET 0.000000 0.000000 0.000000
							}
						}
					}
				}
				JOINT lclavicle
				{
					OFFSET 0.000000 0.000000 0.000000
					CHANNELS 3 Zrotation Yrotation Xrotation
					JOINT lhumerus
					{
						OFFSET 3.362410 1.200890 -0.311210
						CHANNELS 3 Zrotation Yrotation Xrotation
						JOINT lradius
						{
							OFFSET 4.983000 -0.000000 -0.000000
							CHANNELS 3 Zrotation Yrotation Xrotation
							JOINT lwrist
							{
								OFFSET 3.483560 -0.000000 -0.000000
								CHANNELS 3 Zrotation Yrotation Xrotation
								JOINT lhand
								{
									OFFSET 0.000000 0.000000 0.000000
									CHANNELS 3 Zrotation Yrotation Xrotation
									JOINT lfingers
									{
										OFFSET 0.715260 -0.000000 -0.000000
										CHANNELS 3 Zrotation Yrotation Xrotation
										End Site
										{
											OFFSET 0.000000 0.000000 0.000000
										}
									}
								}
								JOINT lthumb
								{
									OFFSET 0.000000 0.000000 0.000000
									CHANNELS 3 Zrotation Yrotation Xrotation
									End Site
									{
										OFFSET 0.000000 0.000000 0.000000
									}
								}
							}
						}
					}
				}
				JOINT rclavicle
				{
					OFFSET 0.000000 0.000000 0.000000
					CHANNELS 3 Zrotation Yrotation Xrotation
					JOINT rhumerus
					{
						OFFSET -3.136600 1.374050 -0.404650
						CHANNELS 3 Zrotation Yrotation Xrotation
						JOINT rradius
						{
							OFFSET -5.241900 -0.000000 -0.000000
							CHANNELS 3 Zrotation Yrotation Xrotation
							JOINT rwrist
							{
								OFFSET -3.444170 -0.000000 -0.000000
								CHANNELS 3 Zrotation Yrotation Xrotation
								JOINT rhand
								{
									OFFSET 0.000000 0.000000 0.000000
									CHANNELS 3 Zrotation Yrotation Xrotation
									JOINT rfingers
									{
										OFFSET -0.622530 -0.000000 -0.000000
										CHANNELS 3 Zrotation Yrotation Xrotation
										End Site
										{
											OFFSET 0.000000 0.000000 0.000000
										}
									}
								}
								JOINT rthumb
								{
									OFFSET 0.000000 0.000000 0.000000
									CHANNELS 3 Zrotation Yrotation Xrotation
									End Site
									{
										OFFSET 0.000000 0.000000 0.000000
									}
								}
							}
						}
					}
				}
			}
		}
	}
}
MOTION
Frames: 8
Frame Time: 0.008333
1.531873 19.718379 3.691521 -175.349987 3.102178 -171.448741 -1.802140 2.082384 1.308744 -9.584523 4.275303 -21.198670 2.267154 8.963245 27.777242 1.723295 -8.861889 -1.771580 0.291200 -3.469900 -9.590000 0.673925 -3.358624 1.080716 23.894855 -1.238092 -24.745147 -2.709541 -9.677392 31.336077 -2.352310 14.601818 -1.262007 -0.132400 -2.345400 6.461100 -3.406525 2.584521 -6.805945 0.308762 4.185767 -2.408099 2.040132 2.683348 15.587072 0.185735 -0.622056 -11.466426 -3.899436 -0.987729 13.932256 0.434700 -0.868900 5.920400 3.365548 4.029959 0.824808 -82.814302 -5.893197 35.242417 4.686972 -26.210958 -1.121418 -0.869972 0.099174 42.204356 15.011810 -9.619687 -2.536200 -7.125000 0.000000 0.000000 -8.030200 20.626700 4.732600 -1.767518 -2.453239 2.843589 85.648382 0.725055 20.882628 -22.917374 40.743183 -4.415156 0.766421 -2.677020 21.739743 -2.347069 7.582119 -0.688200 7.125000 0.000000 0.000000 16.238800 -20.342000 9.984500 
1.535153 19.712947 3.692750 -175.404550 3.240648 -171.456758 -1.811955 2.082983 1.311692 -9.623004 4.085717 -21.144905 2.286049 8.984364 27.859799 1.688735 -8.543287 -1.980293 0.304200 -3.546300 -9.803500 0.672585 -3.363340 1.085981 23.944119 -1.342347 -24.760757 -2.700915 -9.673850 31.330937 -2.378564 15.127821 -1.013793 -0.126800 -2.295500 6.323100 -3.411550 2.580546 -6.725973 0.311927 4.168248 -2.420967 2.157698 2.669932 15.522497 0.010649 -0.576808 -11.601782 -3.835907 -0.945119 14.037084 0.488800 -0.863500 6.031300 3.242932 3.991650 0.770941 -82.231675 -5.922282 36.746169 5.057102 -26.562468 -1.179963 -0.849021 0.093871 41.311287 15.069331 -9.418304 -2.494300 -7.125000 0.000000 0.000000 -8.001400 20.807600 4.682300 -1.540600 -2.435827 2.876881 85.022515 0.296613 21.642439 -25.026992 42.339037 -5.121290 0.727882 -2.708382 20.394885 -2.736658 7.868444 -0.769100 7.125000 0.000000 0.000000 15.988400 -19.980400 9.953500 
1.537510 19.707617 3.692443 -175.479698 3.372471 -171.464456 -1.824466 2.083800 1.313551 -9.683174 3.884546 -21.087956 2.306339 9.007279 27.950245 1.657690 -8.256286 -2.198193 0.302600 -3.536900 -9.777400 0.669326 -3.366358 1.090527 23.950553 -1.386813 -24.741008 -2.689459 -9.664419 31.307920 -2.399172 15.602507 -0.784768 -0.115400 -2.190300 6.031800 -3.425907 2.563693 -6.674650 0.322412 4.135089 -2.431380 2.318273 2.641994 15.467390 -0.196740 -0.538245 -11.661500 -3.791452 -0.889099 14.095527 0.547300 -0.850800 6.096000 3.122167 3.964809 0.722867 -81.686599 -5.942623 38.191697 5.432502 -26.930061 -1.246796 -0.827840 0.097181 40.317392 14.943969 -9.185445 -2.416800 -7.125000 0.000000 0.000000 -8.100700 21.020900 4.702200 -1.316930 -2.421616 2.909088 84.344500 -0.098338 22.245532 -27.177707 43.928649 -5.913348 0.687028 -2.731216 19.158665 -3.102681 8.141613 -0.847100 7.125000 0.000000 0.000000 15.760800 -19.642800 9.924700 
1.540380 19.701673 3.691008 -175.569212 3.521920 -171.470294 -1.835192 2.084816 1.315430 -9.758059 3.698748 -21.031521 2.327679 9.030697 28.045860 1.626001 -7.976953 -2.398895 0.294000 -3.486400 -9.636000 0.668340 -3.369201 1.097385 23.920181 -1.384790 -24.694532 -2.674445 -9.649607 31.267390 -2.413138 16.030090 -0.542974 -0.109700 -2.135400 5.880000 -3.432319 2.562828 -6.643555 0.324608 4.125838 -2.442602 2.402586 2.632066 15.413659 -0.238645 -0.810552 -11.741076 -3.800544 -0.760254 14.194522 0.571600 -0.589400 6.176500 3.004315 3.934478 0.673929 -81.043394 -5.966432 39.614749 5.821365 -27.305408 -1.321105 -0.810050 0.107982 39.272462 14.608836 -9.010727 -2.325100 -7.125000 0.000000 0.000000 -8.344700 21.179500 4.816500 -1.106592 -2.407937 2.937926 83.801136 -0.453912 22.603010 -29.332662 45.496620 -6.777089 0.639515 -2.752890 18.020072 -3.475025 8.462375 -0.932400 7.125000 0.000000 0.000000 15.530400 -19.261700 9.906100 
1.543352 19.696446 3.689471 -175.625782 3.659968 -171.477006 -1.845907 2.085317 1.317315 -9.797792 3.506772 -20.977399 2.348600 9.055420 28.139757 1.590032 -7.663126 -2.621770 0.307300 -3.564000 -9.853200 0.665644 -3.372441 1.103669 23.910405 -1.353690 -24.630003 -2.658849 -9.630028 31.215661 -2.423312 16.397934 -0.341147 -0.102700 -2.066800 5.690200 -3.377110 2.562506 -6.620294 0.332127 4.107482 -2.451998 2.471583 2.621650 15.363331 -0.288705 -0.778357 -11.772532 -3.798837 -0.718072 14.269970 0.574100 -0.573700 6.235200 2.891830 3.915304 0.626302 -80.401378 -6.001960 40.944455 6.194483 -27.662731 -1.395085 -0.794862 0.120529 38.185217 14.200201 -8.886045 -2.237400 -7.125000 0.000000 0.000000 -8.639000 21.289100 4.968600 -0.906413 -2.399257 2.962794 83.237038 -0.727400 22.858917 -31.482167 47.013004 -7.707721 0.594312 -2.768963 16.839326 -3.780733 8.739919 -1.003400 7.125000 0.000000 0.000000 15.354000 -18.929800 9.903100 
1.547247 19.691321 3.688446 -175.701125 3.790593 -171.501182 -1.858361 2.086081 1.318040 -9.851923 3.305368 -20.904442 2.370995 9.082048 28.241523 1.554006 -7.357346 -2.845243 0.308800 -3.572800 -9.877800 0.661819 -3.374833 1.108992 23.868009 -1.262841 -24.515021 -2.642875 -9.603742 31.144776 -2.426297 16.569013 -0.230924 -0.087800 -1.911000 5.259800 -3.346110 2.549867 -6.586747 0.343698 4.079299 -2.457052 2.538513 2.602355 15.331394 -0.238942 -0.723682 -11.848548 -3.841962 -0.654702 14.350934 0.526400 -0.544600 6.302800 2.796607 3.903254 0.582207 -79.784295 -6.063378 42.068579 6.531484 -27.995548 -1.464606 -0.785871 0.135868 37.225684 13.730850 -8.894952 -2.175700 -7.125000 0.000000 0.000000 -8.969300 21.268100 5.167400 -0.713019 -2.396869 2.982732 82.723269 -0.890269 22.974206 -33.612117 48.465739 -8.695740 0.542950 -2.782567 15.698096 -4.100732 9.052190 -1.081300 7.125000 0.000000 0.000000 15.171500 -18.567200 9.903600 
1.549809 19.686094 3.686703 -175.773755 3.952317 -171.532162 -1.871615 2.087402 1.319455 -9.906069 3.131832 -20.830521 2.393940 9.110954 28.348275 1.520556 -7.076703 -3.056249 0.305700 -3.554800 -9.827400 0.656624 -3.378483 1.113448 23.823580 -1.232167 -24.409944 -2.625674 -9.574418 31.058234 -2.429905 16.665369 -0.200146 -0.060900 -1.592500 4.380700 -3.281660 2.549783 -6.566876 0.357290 4.063815 -2.459384 2.609289 2.590199 15.312853 -0.197941 -0.675950 -11.899258 -3.906030 -0.593938 14.433361 0.472900 -0.519000 6.362100 2.709606 3.900279 0.541852 -79.210778 -6.135814 43.074480 6.840589 -28.304843 -1.529768 -0.780663 0.152234 36.214024 13.206767 -8.998717 -2.128400 -7.125000 0.000000 0.000000 -9.332600 21.153800 5.406700 -0.530829 -2.402171 2.998681 82.168496 -0.956444 23.049421 -35.717661 49.842968 -9.735515 0.490500 -2.795479 14.546089 -4.433045 9.332836 -1.160700 7.125000 0.000000 0.000000 14.986900 -18.236300 9.888300 
1.552372 19.679842 3.684346 -175.867814 4.105131 -171.556507 -1.885876 2.088748 1.320899 -9.985721 2.943513 -20.768509 2.418540 9.139849 28.460456 1.481639 -6.765426 -3.273240 0.313100 -3.597000 -9.945600 0.651523 -3.382456 1.119987 23.752866 -1.178275 -24.294917 -2.607325 -9.540201 30.952946 -2.432623 16.640871 -0.260208 -0.032400 -1.162600 3.196400 -3.235143 2.538631 -6.561758 0.371750 4.032353 -2.468118 2.673327 2.568722 15.263108 -0.116147 -0.613766 -11.893838 -3.975268 -0.515588 14.533144 0.407200 -0.482300 6.415900 2.634310 3.894430 0.504882 -78.677982 -6.185341 43.798614 7.066026 -28.523058 -1.574821 -0.781997 0.162587 35.371664 12.777214 -9.266145 -2.130200 -7.125000 0.000000 0.000000 -9.620900 20.881800 5.638400 -0.364784 -2.408132 3.010571 81.642144 -0.975824 23.065329 -37.833059 51.164411 -10.834033 0.437488 -2.809781 13.320184 -4.758243 9.601878 -1.239100 7.125000 0.000000 0.000000 14.812900 -17.915900 9.874000 
